Coordinates
version=1
nRows=18
nColumns=63
inDegrees=yes

Units are S.I. units (second, meters, Newtons, ...)
If the header above contains a line with 'inDegrees', this indicates whether rotational values are in degrees (yes) or radians (no).

endheader
time	pelvis_tilt	pelvis_list	pelvis_rotation	pelvis_tx	pelvis_ty	pelvis_tz	hip_flexion_r	hip_adduction_r	hip_rotation_r	knee_angle_r	knee_angle_r_beta	ankle_angle_r	subtalar_angle_r	mtp_angle_r	hip_flexion_l	hip_adduction_l	hip_rotation_l	knee_angle_l	knee_angle_l_beta	ankle_angle_l	subtalar_angle_l	mtp_angle_l	L5_S1_Flex_Ext	L5_S1_Lat_Bending	L5_S1_axial_rotation	L4_L5_Flex_Ext	L4_L5_Lat_Bending	L4_L5_axial_rotation	L3_L4_Flex_Ext	L3_L4_Lat_Bending	L3_L4_axial_rotation	L2_L3_Flex_Ext	L2_L3_Lat_Bending	L2_L3_axial_rotation	L1_L2_Flex_Ext	L1_L2_Lat_Bending	L1_L2_axial_rotation	L1_T12_Flex_Ext	L1_T12_Lat_Bending	L1_T12_axial_rotation	Abs_r3	Abs_r2	Abs_r1	Abs_t1	Abs_t2	neck_flexion	neck_bending	neck_rotation	arm_flex_r	arm_add_r	arm_rot_r	elbow_flex_r	pro_sup_r	wrist_flex_r	wrist_dev_r	arm_flex_l	arm_add_l	arm_rot_l	elbow_flex_l	pro_sup_l	wrist_flex_l	wrist_dev_l
2.600000	-4.766170	-8.233140	91.319790	0.291569	0.868435	0.680188	-0.876208	-2.751975	-10.064348	2.013744	0.035146	25.031066	10.585551	0.000000	1.841350	4.327064	11.459970	2.878040	0.050231	22.092693	-11.336484	0.000000	0.339100	-0.385790	0.048787	0.629742	-0.513100	0.051837	0.557107	-0.938009	0.051837	0.387557	-0.938009	0.042689	0.314888	-0.786702	0.039640	0.193762	-0.597588	0.036591	2.422155	-4.364130	0.271341	0.000000	0.000000	28.397496	-11.829192	-11.150882	11.243319	-10.412588	32.893433	52.994574	79.399152	-1.572718	15.497989	26.031299	-6.087861	53.844378	47.280828	72.296737	-5.180333	10.069560
2.616667	-4.654515	-8.079271	91.779237	0.290933	0.868766	0.679064	-1.093343	-2.658575	-10.604439	2.163152	0.037754	24.970672	10.686530	0.000000	1.738329	4.239843	11.183491	3.155883	0.055081	22.215806	-10.822557	0.000000	0.355462	-0.386671	-0.007817	0.660128	-0.514272	-0.008306	0.583988	-0.940151	-0.008306	0.406257	-0.940151	-0.006840	0.330082	-0.788499	-0.006351	0.203111	-0.598953	-0.005863	2.539029	-4.374097	-0.043476	0.000000	0.000000	28.433621	-12.195172	-11.344501	10.841455	-10.249920	33.864738	53.417518	78.042601	-0.415712	18.014432	25.503054	-6.272071	56.751991	47.583715	68.617584	-3.045661	12.492598
2.633333	-4.513470	-7.912900	92.095886	0.290367	0.869190	0.678007	-1.243013	-2.549840	-11.072759	2.416016	0.042167	24.924121	10.796452	0.000000	1.608332	4.125079	10.745608	3.452199	0.060252	22.270287	-10.256001	0.000000	0.366647	-0.377784	-0.042659	0.680901	-0.502453	-0.045325	0.602365	-0.918544	-0.045325	0.419041	-0.918544	-0.037327	0.340469	-0.770377	-0.034660	0.209502	-0.585188	-0.031994	2.618925	-4.273570	-0.237256	0.000000	0.000000	28.383068	-12.474521	-11.283807	10.609034	-10.114897	35.282554	53.271106	77.171138	0.562203	20.085221	24.934529	-6.574478	59.523207	47.744697	65.386203	-1.466251	14.644848
2.650000	-4.354486	-7.738310	92.264087	0.289900	0.869675	0.677030	-1.321831	-2.437859	-11.474607	2.759554	0.048163	24.921233	10.939907	0.000000	1.459594	3.990155	10.136464	3.757892	0.065588	22.292334	-9.583748	0.000000	0.371838	-0.361384	-0.055702	0.690540	-0.480641	-0.059184	0.610892	-0.878670	-0.059184	0.424973	-0.878670	-0.048740	0.345288	-0.736935	-0.045258	0.212468	-0.559784	-0.041777	2.655999	-4.088053	-0.309800	0.000000	0.000000	28.311151	-12.649714	-11.001830	10.596562	-10.004880	37.439782	52.625800	75.155207	1.397937	21.576730	24.355518	-6.934042	62.178892	47.698611	62.552794	-0.558358	16.272413
2.666667	-4.181645	-7.576348	92.258901	0.289569	0.870155	0.676073	-1.319044	-2.321849	-11.741747	3.167428	0.055282	24.969722	11.079287	0.000000	1.302436	3.837810	9.403442	4.040593	0.070522	22.304888	-8.866959	0.000000	0.373739	-0.338042	-0.045849	0.694071	-0.449596	-0.048715	0.614016	-0.821916	-0.048715	0.427146	-0.821916	-0.040118	0.347054	-0.689336	-0.037252	0.213554	-0.523627	-0.034387	2.669581	-3.824001	-0.254999	0.000000	0.000000	28.274390	-12.683784	-10.463901	10.703718	-9.894580	40.033092	51.557080	72.435680	2.095063	22.370408	23.711840	-7.282435	64.567549	47.471838	60.143386	-0.585949	17.219202
2.683333	-4.010925	-7.427518	92.153098	0.289332	0.870623	0.675135	-1.249738	-2.225682	-12.153500	3.624207	0.063254	25.116754	11.518632	0.000000	1.141761	3.684973	8.779085	4.283541	0.074762	22.271631	-8.325684	0.000000	0.372631	-0.312027	-0.015612	0.692012	-0.414995	-0.016588	0.612195	-0.758662	-0.016588	0.425879	-0.758662	-0.013660	0.346025	-0.636285	-0.012685	0.212921	-0.483329	-0.011709	2.661663	-3.529708	-0.086829	0.000000	0.000000	28.249431	-12.743453	-9.971894	10.867181	-9.766451	42.885938	50.207049	68.570625	2.539949	22.384491	23.037352	-7.539378	66.601850	46.981322	58.197486	-1.091296	17.463887
2.700000	-3.857006	-7.291617	91.950271	0.289198	0.871091	0.674218	-1.127569	-2.155195	-12.545552	4.106192	0.071667	25.322530	12.041775	0.000000	0.981109	3.548570	8.240014	4.475508	0.078112	22.219841	-7.920400	0.000000	0.369403	-0.284928	0.036499	0.686018	-0.378955	0.038780	0.606892	-0.692775	0.038780	0.422191	-0.692775	0.031936	0.343028	-0.581026	0.029655	0.211077	-0.441354	0.027374	2.638609	-3.223166	0.202995	0.000000	0.000000	28.232599	-12.763670	-9.432836	11.007861	-9.600686	45.715443	48.658456	63.751687	2.727982	21.648760	22.417474	-7.684141	68.685433	46.218525	56.315710	-2.225904	16.790606
2.716667	-3.724106	-7.174337	91.689566	0.289156	0.871535	0.673310	-0.966529	-2.109854	-12.936317	4.593527	0.080172	25.580150	12.639407	0.000000	0.835622	3.425027	7.700406	4.626985	0.080756	22.202438	-7.492731	0.000000	0.365401	-0.258848	0.103248	0.678586	-0.344268	0.109701	0.600317	-0.629364	0.109701	0.417616	-0.629364	0.090342	0.339311	-0.527844	0.083889	0.208790	-0.400956	0.077436	2.610020	-2.928144	0.574233	0.000000	0.000000	28.219756	-12.840361	-8.992708	11.087621	-9.398211	48.475494	47.039769	57.974742	2.667934	20.123415	21.741238	-7.685401	70.346372	45.242818	55.300568	-3.663918	15.396812
2.733333	-3.623786	-7.068984	91.382971	0.289203	0.871959	0.672435	-0.784589	-2.097919	-13.295964	5.074853	0.088573	25.872668	13.263124	0.000000	0.704012	3.327400	7.162737	4.744870	0.082814	22.225028	-7.048742	0.000000	0.360275	-0.235400	0.181462	0.669067	-0.313082	0.192803	0.591896	-0.572352	0.192803	0.411759	-0.572352	0.158779	0.334552	-0.480028	0.147438	0.205861	-0.364635	0.136096	2.573411	-2.662896	1.009236	0.000000	0.000000	28.210095	-12.959037	-8.638105	11.115363	-9.185808	51.159706	45.411211	51.552302	2.315581	17.897734	21.044518	-7.566368	71.687570	44.111688	55.157660	-5.201057	13.362617
2.750000	-3.552488	-6.976003	91.042084	0.289342	0.872345	0.671629	-0.591050	-2.112436	-13.589776	5.539827	0.096688	26.182193	13.867020	0.000000	0.596062	3.253337	6.624044	4.846493	0.084587	22.294675	-6.613732	0.000000	0.354524	-0.214774	0.265819	0.658386	-0.285650	0.282433	0.582447	-0.522202	0.282433	0.405185	-0.522202	0.232592	0.329211	-0.437968	0.215978	0.202575	-0.332685	0.199364	2.532328	-2.429569	1.478407	0.000000	0.000000	28.202506	-13.133601	-8.397359	11.148081	-9.004017	53.868873	43.817234	44.922382	1.734045	15.123428	20.346562	-7.366346	72.794569	42.922035	55.709463	-6.759164	10.860170
2.766667	-3.514026	-6.886409	90.726878	0.289502	0.872676	0.670881	-0.421104	-2.152379	-13.830898	5.963550	0.104084	26.494092	14.390746	0.000000	0.511487	3.209290	6.128127	4.958797	0.086547	22.423717	-6.192999	0.000000	0.346906	-0.197972	0.332645	0.644240	-0.263302	0.353436	0.569932	-0.481348	0.353436	0.396479	-0.481348	0.291065	0.322137	-0.403704	0.270274	0.198222	-0.306658	0.249484	2.477917	-2.239494	1.850074	0.000000	0.000000	28.201084	-13.276350	-8.196587	11.290168	-8.834195	56.863600	42.260134	38.714735	1.025675	11.908432	19.489302	-7.060466	73.038790	41.822493	57.429624	-7.890324	8.398032
2.783333	-3.508816	-6.814520	90.415166	0.289740	0.872926	0.670244	-0.258094	-2.217096	-13.977152	6.344637	0.110735	26.816332	14.816181	0.000000	0.454156	3.193963	5.630106	5.061218	0.088335	22.582084	-5.779334	0.000000	0.339706	-0.185668	0.397783	0.630868	-0.246939	0.422644	0.558103	-0.451434	0.422644	0.388250	-0.451434	0.348060	0.315451	-0.378615	0.323199	0.194108	-0.287600	0.298337	2.426484	-2.100316	2.212349	0.000000	0.000000	28.196796	-13.401594	-8.067885	11.535969	-8.720617	59.939209	40.878848	32.502038	0.374404	8.700318	18.595799	-6.685602	72.763299	40.762316	59.935601	-8.540806	6.077988
2.800000	-3.533305	-6.750431	90.159794	0.289979	0.873073	0.669679	-0.133804	-2.300192	-14.088216	6.663127	0.116294	27.148373	15.156122	0.000000	0.423147	3.205762	5.141593	5.184349	0.090484	22.789692	-5.342720	0.000000	0.331558	-0.177596	0.444510	0.615737	-0.236203	0.472291	0.544717	-0.431807	0.472291	0.378938	-0.431807	0.388946	0.307885	-0.362154	0.361164	0.189452	-0.275096	0.333382	2.368288	-2.009002	2.472229	0.000000	0.000000	28.194530	-13.452811	-7.950536	11.894125	-8.606646	62.967006	39.614919	27.245829	0.030655	5.658992	17.597769	-6.221111	71.742995	39.834238	62.754652	-8.965725	4.141748
2.816667	-3.578479	-6.689098	90.006110	0.290160	0.873121	0.669172	-0.067180	-2.389815	-14.220715	6.904937	0.120514	27.492149	15.437163	0.000000	0.412276	3.234903	4.699169	5.330697	0.093038	23.025931	-4.875982	0.000000	0.321758	-0.172741	0.464694	0.597538	-0.229746	0.493738	0.528617	-0.420004	0.493738	0.367738	-0.420004	0.406608	0.298785	-0.352254	0.377564	0.183853	-0.267577	0.348521	2.298289	-1.954086	2.584491	0.000000	0.000000	28.193512	-13.433386	-7.831396	12.364283	-8.457823	65.906291	38.413852	23.380260	0.018949	2.757262	16.526786	-5.670146	70.047364	39.046263	65.324160	-9.434590	2.553167
2.833333	-3.635639	-6.627515	89.933092	0.290316	0.873050	0.668663	-0.068883	-2.475059	-14.372854	7.057061	0.123169	27.841238	15.681036	0.000000	0.406071	3.277370	4.344225	5.488614	0.095794	23.268651	-4.487358	0.000000	0.310528	-0.170471	0.461780	0.576682	-0.226727	0.490641	0.510167	-0.414484	0.490641	0.354903	-0.414484	0.404057	0.288357	-0.347625	0.375196	0.177436	-0.264060	0.346335	2.218074	-1.928407	2.568281	0.000000	0.000000	28.181070	-13.327452	-7.702845	12.921650	-8.255094	68.848085	37.325456	19.641652	0.469932	0.073941	15.350032	-5.047415	67.509522	38.473074	67.751849	-9.846011	1.454678
2.850000	-3.687714	-6.571118	89.951598	0.290403	0.872864	0.668150	-0.134716	-2.538450	-14.546580	7.116311	0.124203	28.175510	15.875021	0.000000	0.416246	3.308881	3.954926	5.672419	0.099002	23.546911	-3.975451	0.000000	0.298518	-0.168506	0.439488	0.554378	-0.224112	0.466956	0.490436	-0.409704	0.466956	0.341177	-0.409704	0.384552	0.277204	-0.343616	0.357084	0.170573	-0.261015	0.329616	2.132286	-1.906168	2.444300	0.000000	0.000000	28.165141	-13.174444	-7.588231	13.451393	-8.049304	71.343656	36.328806	16.095540	0.632702	-2.221874	14.143201	-4.388453	64.401585	38.080676	69.606846	-10.248032	0.764429
2.866667	-3.726054	-6.512548	90.073952	0.290374	0.872595	0.667653	-0.268606	-2.572112	-14.753220	7.090311	0.123749	28.470057	16.007462	0.000000	0.432857	3.328438	3.638586	5.880756	0.102639	23.808452	-3.472230	0.000000	0.284567	-0.165140	0.394180	0.528468	-0.219636	0.418816	0.467514	-0.401522	0.418816	0.325231	-0.401522	0.344907	0.264248	-0.336754	0.320271	0.162601	-0.255802	0.295635	2.032630	-1.868098	2.192311	0.000000	0.000000	28.155830	-12.982817	-7.428457	14.014811	-7.846683	73.753021	35.439066	11.911741	0.667576	-4.284911	12.923136	-3.714782	60.704005	37.847841	71.248273	-10.394298	0.601502
2.883333	-3.731117	-6.461814	90.295139	0.290211	0.872250	0.667172	-0.449830	-2.558852	-14.960922	6.997692	0.122133	28.696922	16.030721	0.000000	0.463997	3.314813	3.373003	6.117600	0.106772	24.038308	-2.940867	0.000000	0.270253	-0.157648	0.330810	0.501886	-0.209672	0.351486	0.443998	-0.383306	0.351486	0.308872	-0.383306	0.289459	0.250957	-0.321476	0.268783	0.154422	-0.244197	0.248108	1.930388	-1.783347	1.839867	0.000000	0.000000	28.160257	-12.810459	-7.250943	14.476350	-7.631343	75.450216	34.685043	9.173984	0.535328	-5.892686	11.772510	-3.100627	56.849634	37.777638	72.396875	-10.378454	0.882917
